# xmcd
#
# Track frame offsets: 
#        150
#        17955
#        36672
#        54477
#
# Disc length: 973 seconds
#
# Revision: 8
# Processed by: cddbd v1.5.2PL0 Copyright (c) Steve Scherf et al.
# Submitted via: ExactAudioCopy v1.3
#
DISCID=3303cb04
DTITLE=堀江由衣 - 夏の約束
DYEAR=2012
DGENRE=Anime
TTITLE0=夏の約束
TTITLE1=ハレノヒ幻想曲
TTITLE2=夏の約束 off vocal ver.
TTITLE3=ハレノヒ幻想曲 off vocal ver.
EXTD=YEAR: 2012
EXTT0=
EXTT1=
EXTT2=
EXTT3=
PLAYORDER=
